<svg xmlns="http://www.w3.org/2000/svg" xmlns:xlink="http://www.w3.org/1999/xlink" width="354" height="136" version="1.1" viewBox="0 0 354 136"><title>Blockchain Grid</title><g fill="none" fill-rule="evenodd" stroke="none" stroke-linecap="square" stroke-width="1"><g transform="translate(-1078.000000, -60.000000)"><g id="Grid-2" transform="translate(1079.000000, 60.000000)"><path id="Line-2-Copy-2" stroke="#5FC8F1" d="M0.25,75.5 L0.25,101.5"/><path id="Line-2-Copy-37" stroke="#5FC8F1" d="M0.25,109.5 L0.25,135.5"/><path id="Line-2-Copy-3" stroke="#5FC8F1" d="M47,33 L73,33"/><path id="Line-2-Copy-4" stroke="#5FC8F1" d="M47,71 L73,71"/><path id="Line-2-Copy-38" stroke="#5FC8F1" d="M47,105 L73,105"/><path id="Line-2-Copy" stroke="#5FC8F1" d="M80.25,38.5 L80.25,64.5"/><path id="Line-2-Copy-2" stroke="#5FC8F1" d="M80.25,75.5 L80.25,101.5"/><path id="Line-2-Copy-39" stroke="#5FC8F1" d="M80.25,109.5 L80.25,135.5"/><path id="Line-2-Copy-3" stroke="#5FC8F1" d="M127,33 L153,33"/><path id="Line-2-Copy-4" stroke="#5FC8F1" d="M127,71 L153,71"/><path id="Line-2-Copy-40" stroke="#5FC8F1" d="M127,105 L153,105"/><path id="Line-2-Copy" stroke="#5FC8F1" d="M160.25,38.5 L160.25,64.5"/><path id="Line-2-Copy-11" stroke="#5FC8F1" d="M160.25,0.5 L160.25,26.5"/><path id="Line-2-Copy-2" stroke="#5FC8F1" d="M160.25,75.5 L160.25,101.5"/><path id="Line-2-Copy-41" stroke="#5FC8F1" d="M160.25,109.5 L160.25,135.5"/><path id="Line-2" stroke="#5FC8F1" d="M240.25,0.5 L240.25,26.5"/><path id="Line-2-Copy-3" stroke="#5FC8F1" d="M207,33 L233,33"/><path id="Line-2-Copy-4" stroke="#5FC8F1" d="M207,71 L233,71"/><path id="Line-2-Copy-42" stroke="#5FC8F1" d="M207,105 L233,105"/><path id="Line-2-Copy" stroke="#5FC8F1" d="M240.25,38.5 L240.25,64.5"/><path id="Line-2-Copy-2" stroke="#FFF" stroke-width="2" d="M240.25,75.5 L240.25,101.5"/><path id="Line-2-Copy-43" stroke="#5FC8F1" d="M240.25,109.5 L240.25,135.5"/><path id="Line-2-Copy-44" stroke="#5FC8F1" d="M280.25,109.5 L280.25,135.5"/><path id="Line-2-Copy-7" stroke="#5FC8F1" d="M7,71 L33,71"/><path id="Line-2-Copy-70" stroke="#5FC8F1" d="M7,105 L33,105"/><path id="Line-2-Copy-8" stroke="#5FC8F1" d="M40.25,38.5 L40.25,64.5"/><path id="Line-2-Copy-9" stroke="#5FC8F1" d="M40.25,75.5 L40.25,101.5"/><path id="Line-2-Copy-71" stroke="#5FC8F1" d="M40.25,109.5 L40.25,135.5"/><path id="Line-2-Copy-6" stroke="#5FC8F1" d="M87,33 L113,33"/><path id="Line-2-Copy-7" stroke="#5FC8F1" d="M87,71 L113,71"/><path id="Line-2-Copy-72" stroke="#5FC8F1" d="M87,105 L113,105"/><path id="Line-2-Copy-8" stroke="#5FC8F1" d="M120.25,38.5 L120.25,64.5"/><path id="Line-2-Copy-9" stroke="#5FC8F1" d="M120.25,75.5 L120.25,101.5"/><path id="Line-2-Copy-73" stroke="#5FC8F1" d="M120.25,109.5 L120.25,135.5"/><path id="Line-2-Copy-5" stroke="#5FC8F1" d="M200.25,0.5 L200.25,26.5"/><path id="Line-2-Copy-6" stroke="#5FC8F1" d="M167,33 L193,33"/><path id="Line-2-Copy-7" stroke="#5FC8F1" d="M167,71 L193,71"/><path id="Line-2-Copy-74" stroke="#5FC8F1" d="M167,105 L193,105"/><path id="Line-2-Copy-8" stroke="#5FC8F1" d="M200.25,38.5 L200.25,64.5"/><path id="Line-2-Copy-9" stroke="#5FC8F1" d="M200.25,75.5 L200.25,101.5"/><path id="Line-2-Copy-75" stroke="#5FC8F1" d="M200.25,109.5 L200.25,135.5"/><path id="Line-2-Copy-5" stroke="#5FC8F1" d="M280.25,0.5 L280.25,26.5"/><path id="Line-2-Copy-6" stroke="#5FC8F1" d="M247,33 L273,33"/><path id="Line-2-Copy-7" stroke="#FFF" stroke-width="2" d="M247,71 L273,71"/><path id="Line-2-Copy-76" stroke="#FFF" stroke-width="2" d="M247,105 L273,105"/><path id="Line-2-Copy-8" stroke="#FFF" stroke-width="2" d="M280.25,38.5 L280.25,64.5"/><path id="Line-2-Copy-9" stroke="#FFF" stroke-width="2" d="M280.25,75.5 L280.25,101.5"/><path id="Line-2-Copy-5" stroke="#5FC8F1" d="M320.25,0.5 L320.25,26.5"/><path id="Line-2-Copy-6" stroke="#FFF" stroke-width="2" d="M287,33 L313,33"/><path id="Line-2-Copy-7" stroke="#FFF" stroke-width="2" d="M287,71 L313,71"/><path id="Line-2-Copy-78" stroke="#FFF" stroke-width="2" d="M287,105 L313,105"/><path id="Line-2-Copy-8" stroke="#FFF" stroke-width="2" d="M320.25,38.5 L320.25,64.5"/><path id="Line-2-Copy-9" stroke="#FFF" stroke-width="2" d="M320.25,75.5 L320.25,101.5"/><path id="Line-2-Copy-6" stroke="#5FC8F1" d="M326,33 L352,33"/><path id="Line-2-Copy-7" stroke="#5FC8F1" d="M326,71 L352,71"/><path id="Line-2-Copy-80" stroke="#5FC8F1" d="M326,105 L352,105"/></g></g></g></svg>